HIERARCHY
ROOT Hips
{
	OFFSET 0.000000 83.214638 0.000000
	CHANNELS 6 Xposition Yposition Zposition Xrotation Yrotation Zrotation
	JOINT Pelvis
	{
		OFFSET 0.000000 0.000000 0.000000
		CHANNELS 3 Xrotation Yrotation Zrotation
		JOINT LeftUpLeg
		{
			OFFSET 8.479700 -4.795502 -0.379100
			CHANNELS 3 Xrotation Yrotation Zrotation
			JOINT LeftLeg
			{
				OFFSET 0.024144 -32.555107 0.112900
				CHANNELS 3 Xrotation Yrotation Zrotation
				JOINT LeftFoot
				{
					OFFSET -0.024144 -32.638630 -3.012600
					CHANNELS 3 Xrotation Yrotation Zrotation
					JOINT LeftToeBase
					{
						OFFSET 0.970200 -13.225400 11.864200
						CHANNELS 3 Xrotation Yrotation Zrotation
						End Site
						{
							OFFSET 0.000000 12.319262 0.000000
						}
					}
					JOINT LFootTongue
					{
						OFFSET 1.142400 -1.059800 6.665200
						CHANNELS 3 Xrotation Yrotation Zrotation
						End Site
						{
							OFFSET 0.000000 12.319262 0.000000
						}
					}
				}
				JOINT LeftPantLeg
				{
					OFFSET 0.918482 -16.533964 -2.284700
					CHANNELS 3 Xrotation Yrotation Zrotation
					End Site
					{
						OFFSET 0.350399 24.744368 0.000000
					}
				}
			}
		}
		JOINT RightUpLeg
		{
			OFFSET -8.479700 -4.795502 -0.379100
			CHANNELS 3 Xrotation Yrotation Zrotation
			JOINT RightLeg
			{
				OFFSET -0.023144 -32.555092 0.112900
				CHANNELS 3 Xrotation Yrotation Zrotation
				JOINT RightFoot
				{
					OFFSET 0.023144 -32.638641 -3.012700
					CHANNELS 3 Xrotation Yrotation Zrotation
					JOINT RightToeBase
					{
						OFFSET -0.970200 -13.225400 11.864200
						CHANNELS 3 Xrotation Yrotation Zrotation
						End Site
						{
							OFFSET 0.000000 12.319244 0.000000
						}
					}
					JOINT RFootTongue
					{
						OFFSET -1.142200 -1.059800 6.665200
						CHANNELS 3 Xrotation Yrotation Zrotation
						End Site
						{
							OFFSET 0.000000 12.319243 0.000000
						}
					}
				}
				JOINT RightPantLeg
				{
					OFFSET -0.919482 -16.533978 -2.284800
					CHANNELS 3 Xrotation Yrotation Zrotation
					End Site
					{
						OFFSET -0.350400 24.744419 0.000000
					}
				}
			}
		}
	}
	JOINT Spine
	{
		OFFSET 0.000000 7.722000 1.166200
		CHANNELS 3 Xrotation Yrotation Zrotation
		JOINT Spine1
		{
			OFFSET 0.000000 12.024101 0.248800
			CHANNELS 3 Xrotation Yrotation Zrotation
			JOINT Spine2
			{
				OFFSET 0.000000 11.502998 -0.491200
				CHANNELS 3 Xrotation Yrotation Zrotation
				JOINT Neck
				{
					OFFSET 0.000000 18.430702 -3.123100
					CHANNELS 3 Xrotation Yrotation Zrotation
					JOINT Head
					{
						OFFSET 0.000000 9.051102 1.034000
						CHANNELS 3 Xrotation Yrotation Zrotation
						JOINT HairB
						{
							OFFSET 0.208400 24.786102 24.822300
							CHANNELS 3 Xrotation Yrotation Zrotation
							End Site
							{
								OFFSET 0.000000 32.263779 0.000000
							}
						}
						JOINT HairA
						{
							OFFSET -7.081100 24.428299 23.196600
							CHANNELS 3 Xrotation Yrotation Zrotation
							End Site
							{
								OFFSET 0.000000 32.263779 0.000000
							}
						}
						JOINT Hat
						{
							OFFSET 16.728800 15.048294 -15.439601
							CHANNELS 3 Xrotation Yrotation Zrotation
							End Site
							{
								OFFSET 0.000000 32.263779 0.000000
							}
						}
					}
				}
				JOINT LeftShoulder
				{
					OFFSET 6.197800 13.665199 -4.064700
					CHANNELS 3 Xrotation Yrotation Zrotation
					JOINT LeftArm
					{
						OFFSET 7.778100 -0.187103 -1.709300
						CHANNELS 3 Xrotation Yrotation Zrotation
						JOINT LeftForeArm
						{
							OFFSET 22.049376 0.000000 0.000000
							CHANNELS 3 Xrotation Yrotation Zrotation
							JOINT LeftHand
							{
								OFFSET 23.009392 0.000000 0.000000
								CHANNELS 3 Xrotation Yrotation Zrotation
								JOINT LeftHandThumb1
								{
									OFFSET 3.507191 -2.063065 3.133727
									CHANNELS 3 Xrotation Yrotation Zrotation
									JOINT LeftHandThumb2
									{
										OFFSET 3.101337 -1.790558 1.790558
										CHANNELS 3 Xrotation Yrotation Zrotation
										JOINT LeftHandThumb3
										{
											OFFSET 3.058640 -1.765907 1.765906
											CHANNELS 3 Xrotation Yrotation Zrotation
											End Site
											{
												OFFSET -0.415260 3.926476 -0.049563
											}
										}
									}
								}
								JOINT LeftHandIndex1
								{
									OFFSET 11.334419 -0.901459 3.706815
									CHANNELS 3 Xrotation Yrotation Zrotation
									JOINT LeftHandIndex2
									{
										OFFSET 3.283112 0.000000 0.000000
										CHANNELS 3 Xrotation Yrotation Zrotation
										JOINT LeftHandIndex3
										{
											OFFSET 3.323853 0.000000 0.000000
											CHANNELS 3 Xrotation Yrotation Zrotation
											End Site
											{
												OFFSET -1.135597 3.097809 0.402452
											}
										}
									}
								}
								JOINT LeftHandMiddle1
								{
									OFFSET 11.335861 0.000000 0.000000
									CHANNELS 3 Xrotation Yrotation Zrotation
									JOINT LeftHandMiddle2
									{
										OFFSET 3.410492 0.000000 0.000000
										CHANNELS 3 Xrotation Yrotation Zrotation
										JOINT LeftHandMiddle3
										{
											OFFSET 3.312172 0.000000 0.000000
											CHANNELS 3 Xrotation Yrotation Zrotation
											End Site
											{
												OFFSET -1.150200 3.080154 0.400270
											}
										}
									}
								}
								JOINT LeftHandRing1
								{
									OFFSET 11.514786 -0.013176 -3.003090
									CHANNELS 3 Xrotation Yrotation Zrotation
									JOINT LeftHandRing2
									{
										OFFSET 3.053307 0.000000 0.000000
										CHANNELS 3 Xrotation Yrotation Zrotation
										JOINT LeftHandRing3
										{
											OFFSET 3.295807 0.000000 0.000000
											CHANNELS 3 Xrotation Yrotation Zrotation
											End Site
											{
												OFFSET -1.281006 3.013344 0.375733
											}
										}
									}
								}
								JOINT LeftHandPinky1
								{
									OFFSET 10.518692 -0.960396 -5.730441
									CHANNELS 3 Xrotation Yrotation Zrotation
									JOINT LeftHandPinky2
									{
										OFFSET 2.861649 0.000000 0.000000
										CHANNELS 3 Xrotation Yrotation Zrotation
										JOINT LeftHandPinky3
										{
											OFFSET 2.863380 0.000000 0.000000
											CHANNELS 3 Xrotation Yrotation Zrotation
											End Site
											{
												OFFSET -0.843597 2.711159 0.369971
											}
										}
									}
								}
							}
							JOINT LSleeve
							{
								OFFSET 6.676277 -0.344902 -1.011730
								CHANNELS 3 Xrotation Yrotation Zrotation
								End Site
								{
									OFFSET 0.000000 14.885353 0.000000
								}
							}
						}
					}
				}
				JOINT RightShoulder
				{
					OFFSET -6.197800 13.665199 -4.064700
					CHANNELS 3 Xrotation Yrotation Zrotation
					JOINT RightArm
					{
						OFFSET -7.778100 -0.187103 -1.709300
						CHANNELS 3 Xrotation Yrotation Zrotation
						JOINT RightForeArm
						{
							OFFSET -22.049376 0.000000 0.000000
							CHANNELS 3 Xrotation Yrotation Zrotation
							JOINT RightHand
							{
								OFFSET -23.009392 0.000000 0.000000
								CHANNELS 3 Xrotation Yrotation Zrotation
								JOINT RightHandThumb1
								{
									OFFSET -3.507191 -2.063065 3.133727
									CHANNELS 3 Xrotation Yrotation Zrotation
									JOINT RightHandThumb2
									{
										OFFSET -3.101337 -1.790558 1.790558
										CHANNELS 3 Xrotation Yrotation Zrotation
										JOINT RightHandThumb3
										{
											OFFSET -3.058640 -1.765907 1.765906
											CHANNELS 3 Xrotation Yrotation Zrotation
											End Site
											{
												OFFSET 0.415260 3.926476 -0.049563
											}
										}
									}
								}
								JOINT RightHandIndex1
								{
									OFFSET -11.334419 -0.901459 3.706815
									CHANNELS 3 Xrotation Yrotation Zrotation
									JOINT RightHandIndex2
									{
										OFFSET -3.283112 0.000000 0.000000
										CHANNELS 3 Xrotation Yrotation Zrotation
										JOINT RightHandIndex3
										{
											OFFSET -3.323853 0.000000 0.000000
											CHANNELS 3 Xrotation Yrotation Zrotation
											End Site
											{
												OFFSET 1.135597 3.097809 0.402452
											}
										}
									}
								}
								JOINT RightHandMiddle1
								{
									OFFSET -11.335861 0.000000 0.000000
									CHANNELS 3 Xrotation Yrotation Zrotation
									JOINT RightHandMiddle2
									{
										OFFSET -3.410492 0.000000 0.000000
										CHANNELS 3 Xrotation Yrotation Zrotation
										JOINT RightHandMiddle3
										{
											OFFSET -3.312172 0.000000 0.000000
											CHANNELS 3 Xrotation Yrotation Zrotation
											End Site
											{
												OFFSET 1.150200 3.080154 0.400270
											}
										}
									}
								}
								JOINT RightHandRing1
								{
									OFFSET -11.514786 -0.013176 -3.003090
									CHANNELS 3 Xrotation Yrotation Zrotation
									JOINT RightHandRing2
									{
										OFFSET -3.053307 0.000000 0.000000
										CHANNELS 3 Xrotation Yrotation Zrotation
										JOINT RightHandRing3
										{
											OFFSET -3.295807 0.000000 0.000000
											CHANNELS 3 Xrotation Yrotation Zrotation
											End Site
											{
												OFFSET 1.281006 3.013344 0.375733
											}
										}
									}
								}
								JOINT RightHandPinky1
								{
									OFFSET -10.518692 -0.960396 -5.730441
									CHANNELS 3 Xrotation Yrotation Zrotation
									JOINT RightHandPinky2
									{
										OFFSET -2.861649 0.000000 0.000000
										CHANNELS 3 Xrotation Yrotation Zrotation
										JOINT RightHandPinky3
										{
											OFFSET -2.863380 0.000000 0.000000
											CHANNELS 3 Xrotation Yrotation Zrotation
											End Site
											{
												OFFSET 0.843597 2.711159 0.369971
											}
										}
									}
								}
							}
							JOINT RSleeve
							{
								OFFSET -6.676277 -0.344902 -1.011730
								CHANNELS 3 Xrotation Yrotation Zrotation
								End Site
								{
									OFFSET 0.000000 14.885353 0.000000
								}
							}
						}
					}
				}
				JOINT Backpack
				{
					OFFSET 0.000000 -2.471497 36.677502
					CHANNELS 3 Xrotation Yrotation Zrotation
					End Site
					{
						OFFSET 0.000000 20.427315 0.000000
					}
				}
				JOINT Hood
				{
					OFFSET 0.000000 18.754097 -10.431000
					CHANNELS 3 Xrotation Yrotation Zrotation
					JOINT Hood1
					{
						OFFSET 0.000000 -5.011002 -7.685901
						CHANNELS 3 Xrotation Yrotation Zrotation
						End Site
						{
							OFFSET 0.000000 9.175140 0.000000
						}
					}
				}
				JOINT LHoodieString
				{
					OFFSET 5.250500 16.397697 3.089900
					CHANNELS 3 Xrotation Yrotation Zrotation
					JOINT LHoodieString1
					{
						OFFSET 0.257700 -6.364304 3.694600
						CHANNELS 3 Xrotation Yrotation Zrotation
						JOINT LHoodieString2
						{
							OFFSET 0.000000 -9.643799 2.679100
							CHANNELS 3 Xrotation Yrotation Zrotation
							End Site
							{
								OFFSET 0.000000 10.009018 0.000000
							}
						}
					}
				}
				JOINT RHoodieString
				{
					OFFSET -5.250500 16.397697 3.089900
					CHANNELS 3 Xrotation Yrotation Zrotation
					JOINT RHoodieString1
					{
						OFFSET -0.257700 -6.364304 3.694600
						CHANNELS 3 Xrotation Yrotation Zrotation
						JOINT RHoodieString2
						{
							OFFSET 0.000000 -9.643799 2.679100
							CHANNELS 3 Xrotation Yrotation Zrotation
							End Site
							{
								OFFSET 0.000000 10.009018 0.000000
							}
						}
					}
				}
			}
			JOINT LBackpack_Strap
			{
				OFFSET 15.223200 -7.719803 -6.610900
				CHANNELS 3 Xrotation Yrotation Zrotation
				End Site
				{
					OFFSET 0.000000 16.040596 0.000000
				}
			}
			JOINT RBackpack_Strap
			{
				OFFSET -15.223000 -7.719803 -6.610900
				CHANNELS 3 Xrotation Yrotation Zrotation
				End Site
				{
					OFFSET 0.000000 16.040596 0.000000
				}
			}
		}
	}
	JOINT BoyFacialAnim_Joint
	{
		OFFSET 1.000000 -82.208099 -1.550900
		CHANNELS 3 Xrotation Yrotation Zrotation
		End Site
		{
			OFFSET 0.000000 30.012791 0.000000
		}
	}
}
MOTION
Frames: 4
Frame Time: 0.016667
2.015537 75.196991 -6.872222 4.977167 -63.964646 6.499133 0.000000 0.000001 -0.000000 -47.504471 11.375010 32.816542 61.070060 6.129974 2.060909 1.254866 3.451918 -12.865534 0.000001 -0.000001 -0.000000 0.000001 -0.000001 0.000000 0.000001 -0.000002 -0.000000 -35.470108 -18.427721 -31.001996 43.677800 5.957654 -0.439397 -13.771572 1.530313 13.780238 -0.000000 -0.000000 0.000000 -0.000000 -0.000000 0.000000 -0.000000 -0.000000 -0.000000 6.022107 -0.235732 -10.218248 2.022904 1.037166 -3.225558 1.954057 1.061969 -3.259244 -0.427862 1.561224 3.150430 -6.501608 52.691146 -2.930369 -0.000001 0.000000 -0.000000 -0.000001 0.000000 -0.000000 -0.000001 0.000000 -0.000000 8.323262 13.077827 -7.024602 9.541094 6.100880 -50.685628 -17.718187 -52.472597 -11.271198 -68.344328 2.082872 12.151081 40.109893 -15.297206 -0.360571 5.639864 28.097938 11.338764 0.000003 -0.000001 0.000002 6.882210 2.840071 -61.140513 8.247980 7.640075 -89.897850 -0.000000 -0.000000 -0.000002 -2.345566 4.688888 -62.655313 8.754120 9.897141 -87.051314 -0.000001 0.000000 -0.000003 -9.042516 10.045766 -60.766260 8.524047 9.508866 -66.892988 -0.000000 0.000001 -0.000000 -17.946959 14.755046 -51.485877 8.868429 8.667047 -84.812023 -0.000001 0.000000 -0.000002 0.000001 0.000002 -0.000003 -1.250378 0.958164 0.166085 14.011441 15.962888 54.635909 -3.654935 37.198740 3.123710 -40.713873 8.548934 -33.022261 -1.061790 -5.152532 8.081561 1.452035 -24.614564 -6.362834 -0.000001 0.000002 -0.000005 0.188939 0.143006 1.399183 -0.094996 -0.785869 10.671233 -0.000001 -0.000003 -0.000000 0.348242 -5.918433 2.583759 1.609623 -4.842109 28.629274 -0.000001 0.000002 0.000002 0.965536 -11.985681 1.668194 1.794825 -3.771874 26.865473 -0.000003 -0.000003 0.000002 2.078744 -19.147952 10.710199 3.052574 -1.679797 16.780173 -0.000001 0.000005 -0.000004 0.000001 -0.000001 -0.000005 0.000000 0.000001 0.000001 0.000000 0.000001 0.000001 0.000000 0.000001 0.000001 0.000000 0.000001 0.000001 0.000000 0.000001 0.000001 -0.000000 0.000001 0.000001 0.000000 0.000001 0.000001 0.000000 0.000001 0.000001 -0.000000 0.000001 0.000001 0.000001 0.000002 -0.000001 0.000001 0.000002 -0.000001 0.000000 0.000001 -0.000000 
1.870273 74.873756 -6.666346 4.593112 -66.159384 6.178229 -0.000000 0.000000 -0.000000 -44.869056 9.607421 31.661492 58.985316 4.207587 1.915581 -2.949216 2.651055 -13.093831 -0.000000 0.000003 -0.000001 -0.000000 0.000003 -0.000002 -0.000001 0.000002 0.000003 -35.514361 -16.663947 -30.189600 44.839454 6.295275 -0.645555 -14.239088 1.637600 13.835504 0.000000 -0.000000 0.000000 0.000000 -0.000000 0.000000 0.000000 -0.000000 -0.000000 6.570074 0.196556 -10.384130 2.213360 1.252821 -3.503124 2.134166 1.287676 -3.544560 -0.726363 1.472295 3.093045 -7.529521 54.155873 -2.182899 -0.000000 0.000000 0.000000 -0.000000 0.000000 0.000000 -0.000000 0.000000 0.000000 7.748748 12.716428 -7.899210 3.768031 9.179800 -48.813835 -14.713879 -50.244504 -8.593170 -62.145275 -0.745702 11.047857 40.109907 -15.297201 -0.360549 5.639868 28.097921 11.338763 -0.000000 -0.000001 0.000001 6.882187 2.840062 -61.140479 8.247988 7.640116 -89.897816 -0.000001 0.000000 0.000005 -2.345587 4.688883 -62.655265 8.754104 9.897172 -87.051260 -0.000003 -0.000002 -0.000000 -9.042492 10.045750 -60.766240 8.524032 9.508837 -66.892967 0.000001 0.000001 -0.000000 -17.946957 14.755027 -51.485911 8.868434 8.667061 -84.811996 0.000002 0.000003 0.000000 -0.000001 -0.000001 0.000003 -1.130646 1.066991 0.184880 14.688274 15.673587 54.960019 -0.682695 33.923442 1.183332 -47.488772 7.229303 -35.346188 -1.746950 -5.633456 9.467123 1.769604 -24.313733 -7.223181 0.000000 0.000001 -0.000004 0.055238 0.373328 0.873918 -0.045535 -0.390815 7.572037 0.000000 0.000002 0.000002 0.374745 -5.832941 1.407350 1.498667 -4.485150 26.058304 -0.000002 0.000000 0.000003 1.026412 -11.929853 2.279492 1.646400 -3.560654 25.559924 -0.000001 0.000000 0.000000 2.327926 -19.238763 13.973362 3.124606 -1.790146 17.283083 -0.000001 -0.000001 0.000003 0.000002 -0.000001 -0.000001 -0.000000 -0.000000 -0.000001 -0.000000 -0.000000 -0.000001 -0.000000 -0.000000 -0.000001 -0.000000 -0.000000 -0.000001 -0.000000 -0.000000 -0.000000 -0.000001 -0.000000 -0.000000 -0.000000 -0.000000 -0.000001 -0.000000 -0.000000 -0.000000 -0.000001 -0.000000 -0.000000 0.000001 -0.000001 0.000000 0.000001 -0.000001 0.000000 -0.000000 0.000000 -0.000000 
1.771476 74.564270 -6.331710 4.501654 -68.002941 6.180584 -0.000000 0.000000 0.000000 -42.966213 9.076260 31.172406 56.548318 2.785315 1.805192 -6.208396 0.646631 -12.255777 -0.000000 0.000002 -0.000000 -0.000000 0.000002 -0.000000 0.000001 -0.000001 -0.000000 -35.572814 -14.869744 -29.532748 45.769716 6.417539 -0.867342 -14.584826 1.626633 14.144341 0.000000 -0.000000 0.000000 0.000000 -0.000000 0.000000 -0.000001 0.000000 0.000001 7.429051 0.368464 -10.312685 2.596583 1.518473 -3.801021 2.492149 1.563026 -3.857248 -0.932589 1.253294 2.928707 -9.210472 55.518120 -1.362799 -0.000001 0.000000 0.000000 -0.000001 0.000000 0.000000 -0.000001 0.000000 0.000000 7.224909 11.907276 -8.568570 -2.264325 11.705506 -47.207556 -12.391271 -47.836333 -6.593952 -56.577196 -1.497016 9.008506 40.109931 -15.297177 -0.360524 5.639849 28.097933 11.338801 -0.000003 0.000000 -0.000000 6.882222 2.840044 -61.140507 8.247958 7.640075 -89.897850 0.000001 0.000000 -0.000005 -2.345561 4.688858 -62.655272 8.754090 9.897184 -87.051294 -0.000006 -0.000002 -0.000004 -9.042515 10.045771 -60.766260 8.524082 9.508848 -66.892988 -0.000000 0.000001 -0.000004 -17.946959 14.755053 -51.485925 8.868427 8.667066 -84.811975 0.000001 0.000001 0.000002 -0.000001 -0.000003 0.000005 -1.065461 1.265485 0.198263 14.656635 14.472739 55.166000 -4.528760 30.845940 3.374037 -47.603987 6.503102 -36.543312 -2.346140 -6.100543 10.731416 2.076121 -24.043434 -8.030817 -0.000002 0.000000 -0.000003 -0.054795 0.532066 0.738696 0.019787 -0.087323 5.078582 -0.000001 0.000000 0.000004 0.381844 -5.810103 1.088486 1.432682 -4.204254 24.052161 0.000001 0.000002 0.000004 1.176598 -11.785477 3.841125 1.607181 -3.502545 25.206263 -0.000000 -0.000001 -0.000002 2.615615 -19.318248 17.991241 3.315373 -2.067378 18.569816 -0.000001 -0.000002 -0.000000 0.000001 -0.000001 -0.000001 0.000001 -0.000001 -0.000001 0.000001 -0.000001 -0.000001 0.000001 -0.000001 -0.000001 0.000001 -0.000001 -0.000001 0.000001 -0.000001 -0.000000 0.000000 -0.000001 -0.000001 0.000001 -0.000001 -0.000001 0.000001 -0.000001 -0.000000 0.000000 -0.000001 -0.000001 0.000000 -0.000001 0.000000 0.000000 -0.000001 0.000000 -0.000000 0.000000 0.000000 
1.760983 74.250076 -5.876648 4.587225 -69.055678 6.323804 0.000000 -0.000002 0.000000 -41.669324 8.959817 30.644112 54.312087 -0.462352 1.546139 -9.691489 -0.818643 -10.871023 0.000000 0.000001 -0.000000 0.000000 0.000001 -0.000000 0.000000 0.000000 -0.000000 -35.542863 -13.257709 -29.112486 46.501864 6.180674 -1.114247 -14.865582 1.393832 14.789364 -0.000000 -0.000000 0.000000 -0.000000 -0.000000 0.000000 0.000001 -0.000000 -0.000001 8.346154 0.003754 -10.139809 3.018322 1.678067 -4.067145 2.881013 1.725167 -4.151149 -0.981796 1.071887 2.832520 -11.175558 56.782306 -0.649286 0.000000 -0.000000 0.000000 0.000000 -0.000000 0.000000 0.000000 -0.000000 0.000000 6.677905 10.753165 -8.549237 -8.021121 14.587816 -46.182703 -13.712505 -45.464625 -7.520427 -48.869969 -1.339831 7.345873 40.109924 -15.297223 -0.360566 5.639848 28.097949 11.338829 0.000001 -0.000000 -0.000001 6.882204 2.840015 -61.140493 8.247984 7.640120 -89.897864 -0.000001 0.000000 -0.000003 -2.345547 4.688832 -62.655265 8.754086 9.897144 -87.051321 -0.000001 -0.000004 -0.000001 -9.042516 10.045717 -60.766212 8.524051 9.508876 -66.892960 0.000001 0.000000 -0.000006 -17.946969 14.755032 -51.485864 8.868448 8.667087 -84.811955 -0.000001 0.000001 0.000002 -0.000002 -0.000001 0.000002 -0.941225 1.430436 0.218052 14.222965 13.758791 55.030096 -5.122353 28.405611 3.551379 -49.977771 5.601611 -36.818247 -2.731570 -6.426722 11.574433 2.364107 -23.806189 -8.771051 0.000000 -0.000001 -0.000002 -0.124218 0.615517 0.793049 0.070677 0.090717 3.555005 0.000001 0.000001 0.000004 0.372803 -5.839089 1.492327 1.402474 -4.036310 22.855970 -0.000001 0.000000 -0.000002 1.383459 -11.568635 6.136998 1.656972 -3.576008 25.654148 -0.000002 -0.000000 0.000002 2.906269 -19.368571 22.456808 3.612574 -2.462299 20.466635 -0.000001 -0.000001 0.000000 0.000000 0.000000 -0.000004 -0.000000 0.000001 0.000001 -0.000000 0.000001 0.000001 -0.000000 0.000001 0.000001 -0.000000 0.000001 0.000001 -0.000000 0.000001 0.000001 -0.000000 -0.000000 0.000001 -0.000000 0.000001 0.000001 -0.000000 0.000001 0.000001 -0.000000 -0.000000 0.000001 -0.000000 0.000001 -0.000001 -0.000000 0.000001 -0.000001 0.000000 -0.000002 0.000000 
